<mxfile host="app.diagrams.net" modified="2023-04-10T06:53:35.288Z" agent="Mozilla/5.0 (Windows NT 10.0; Win64; x64) AppleWebKit/537.36 (KHTML, like Gecko) Chrome/112.0.0.0 Safari/537.36" version="21.1.5" etag="ZAjP9tMUTTPAqZwXRkr8" type="github">
  <diagram name="Page-1" id="4cKKeyyB7avYFKjr0u-h">
    <mxGraphModel>
      <root>
        <mxCell id="0" />
        <mxCell id="1" parent="0" />
      </root>
    </mxGraphModel>
  </diagram>
</mxfile>
